<svg width="58" height="58" fill="none" xmlns="http://www.w3.org/2000/svg"><path d="M32.61 57.71c-13.84 0-25.102-11.26-25.102-25.1a2.386 2.386 0 012.39-2.391h20.309V9.91a2.386 2.386 0 012.39-2.39c13.841 0 25.103 11.26 25.103 25.1.012 13.828-11.25 25.09-25.09 25.09zM12.44 35c1.184 10.078 9.786 17.918 20.168 17.918 11.203 0 20.309-9.117 20.309-20.309 0-10.394-7.84-18.984-17.918-20.168V32.61A2.386 2.386 0 0132.61 35H12.44z" fill="#339"/><path d="M25.39 27.781H2.68a2.386 2.386 0 01-2.39-2.39C.29 11.55 11.55.289 25.39.289a2.386 2.386 0 012.391 2.39v22.712a2.386 2.386 0 01-2.39 2.39zM5.21 23h17.778V5.21C13.707 6.314 6.313 13.708 5.211 23z" fill="#339"/></svg>