<svg width="58" height="58" fill="none" xmlns="http://www.w3.org/2000/svg"><path d="M4.848 25.285c.234-.058 22.523-5.273 42.422-13.394l-1.594 3.879c-.504 1.218.082 2.636 1.312 3.117 1.407.562 2.778-.317 3.117-1.313l4.067-9.949a2.385 2.385 0 00-.012-1.84 2.362 2.362 0 00-1.312-1.289L42.828.453a2.391 2.391 0 00-3.117 1.324 2.392 2.392 0 001.324 3.118l5.367 2.168C26.656 15.252 4.004 20.563 3.77 20.62a2.385 2.385 0 00-1.793 2.871c.257 1.102 1.441 2.145 2.87 1.793zM55.121 52.93V25.004a2.386 2.386 0 00-2.39-2.39 2.386 2.386 0 00-2.391 2.39v27.914H39.102v-24.34a2.386 2.386 0 00-2.391-2.39 2.386 2.386 0 00-2.39 2.39V52.93h-11.24V32.14a2.386 2.386 0 00-2.39-2.39 2.386 2.386 0 00-2.391 2.39v20.79H7.05V36.898a2.386 2.386 0 00-2.39-2.39 2.386 2.386 0 00-2.391 2.39v16.067A2.392 2.392 0 00.29 55.32a2.386 2.386 0 002.39 2.39h52.64a2.386 2.386 0 002.39-2.39c0-1.324-1.136-2.46-2.589-2.39z" fill="#339"/></svg>